<?xml version="1.0" encoding="UTF-8"?>
<svg width="512" height="512" viewBox="0 0 512 512" xmlns="http://www.w3.org/2000/svg">
    <rect width="512" height="512" fill="#fff"/>
    <path fill="#bf0a30" d="M0 0h512v39.4H0zm0 78.8h512v39.4H0zm0 78.7h512v39.4H0zm0 78.8h512v39.4H0zm0 78.7h512v39.4H0zm0 78.8h512v39.4H0zm0 78.7h512v39.4H0z"/>
    <rect width="217.1" height="275.7" fill="#002868"/>
    <g fill="#fff">
        <path d="m21.7 27.5 5.5 17h17.8L30.7 54l5.5 17-14.5-10.5L7.2 71l5.5-17L-1.6 44.5h17.8z"/>
        <path d="m21.7 82.2 5.5 17h17.8L30.7 109l5.5 17-14.5-10.5L7.2 126l5.5-17-14.3-10.5h17.8z"/>
        <path d="m21.7 137 5.5 17h17.8L30.7 164l5.5 17-14.5-10.5L7.2 181l5.5-17-14.3-10.5h17.8z"/>
        <path d="m21.7 192 5.5 17h17.8L30.7 219l5.5 17-14.5-10.5L7.2 236l5.5-17-14.3-10.5h17.8z"/>
        <path d="m21.7 247 5.5 17h17.8L30.7 274l5.5 17-14.5-10.5L7.2 291l5.5-17-14.3-10.5h17.8z"/>
    </g>
</svg>